<svg width="50" height="50" viewBox="0 0 50 50" xmlns="http://www.w3.org/2000/svg"><g fill="none" fill-rule="evenodd"><rect width="50" height="50" rx="25"/><path d="M37 17.309a9.83 9.83 0 01-2.828.775 4.932 4.932 0 002.165-2.724 9.864 9.864 0 01-3.127 1.195A4.916 4.916 0 0029.616 15c-3.179 0-5.515 2.966-4.797 6.045a13.978 13.978 0 01-10.148-5.144 4.93 4.93 0 001.523 6.574 4.903 4.903 0 01-2.229-.616c-.054 2.281 1.581 4.415 3.949 4.89a4.935 4.935 0 01-2.224.084 4.928 4.928 0 004.6 3.419 9.9 9.9 0 01-7.29 2.04 13.94 13.94 0 007.548 2.212c9.142 0 14.307-7.721 13.995-14.646A10.025 10.025 0 0037 17.309z"/></g></svg>