<?xml version="1.0" encoding="UTF-8"?>
<svg width="50px" height="50px" viewBox="0 0 50 50" version="1.1" xmlns="http://www.w3.org/2000/svg" xmlns:xlink="http://www.w3.org/1999/xlink">
    <!-- Generator: sketchtool 59.1 (101010) - https://sketch.com -->
    <title>47392853-0947-4477-8533-1ACEDAD12FAA</title>
    <desc>Created with sketchtool.</desc>
    <g id="assets" stroke="none" stroke-width="1" fill="none" fill-rule="evenodd">
        <g transform="translate(-521.000000, -620.000000)" id="icon-linkedin">
            <g transform="translate(521.000000, 620.000000)">
                <g>
                    <rect id="Rectangle-Copy-2" x="0" y="0" width="50" height="50" rx="25"></rect>
                    <g id="icon/white/linkedin" transform="translate(13.000000, 14.000000)" fill-rule="nonzero">
                        <path d="M4.98,2.5 C4.98,3.881 3.87,5 2.5,5 C1.13,5 0.02,3.881 0.02,2.5 C0.02,1.12 1.13,0 2.5,0 C3.87,0 4.98,1.12 4.98,2.5 Z M5,7 L0,7 L0,23 L5,23 L5,7 Z M12.982,7 L8.014,7 L8.014,23 L12.983,23 L12.983,14.601 C12.983,9.931 19.012,9.549 19.012,14.601 L19.012,23 L24,23 L24,12.869 C24,4.989 15.078,5.276 12.982,9.155 L12.982,7 Z" id="Shape"></path>
                    </g>
                </g>
            </g>
        </g>
    </g>
</svg>